<svg width="370" height="98" viewBox="0 0 370 98" fill="none" xmlns="http://www.w3.org/2000/svg">
<path d="M145.575 37.225V23.5H141.075V41H159.075V37.225H145.575ZM187.076 27.075V23.5H168.576V41H187.076V37.425H173.076V33.875H187.076V30.625H173.076V27.075H187.076ZM215.393 41H220.368L211.318 23.5H205.243L196.218 41H201.168L203.043 37.275H213.518L215.393 41ZM204.718 33.925L208.293 26.825L211.843 33.925H204.718ZM249.643 29.925C249.643 26.025 246.918 23.5 242.943 23.5H229.193V41H233.693V36.325H240.943L243.768 41H249.068L245.843 35.8C248.193 34.875 249.643 32.775 249.643 29.925ZM233.693 27.275H241.693C243.043 27.275 245.143 27.275 245.143 29.925C245.143 32.55 243.043 32.55 241.693 32.55H233.693V27.275ZM276.917 23.5V36.65L264.967 23.5H258.867V41H263.367V27.875L275.292 41H281.417V23.5H276.917ZM295.678 23.5H291.178V41H295.678V23.5ZM323.472 23.5V36.65L311.522 23.5H305.422V41H309.922V27.875L321.847 41H327.972V23.5H323.472ZM348.063 34.55H354.588C354.488 35.875 352.738 37.775 348.388 37.775C342.563 37.775 341.738 34.475 341.738 32.35C341.738 30.25 342.538 27.025 348.388 27.025C353.138 27.025 354.338 29 354.588 30.325H359.163C358.888 25.975 355.388 23.25 348.388 23.25C341.188 23.25 337.238 26.45 337.238 32.25C337.238 38.05 341.188 41.25 347.638 41.25C351.363 41.25 353.988 40.05 355.638 38.25L355.838 41H359.163V31.625H348.063V34.55ZM154.825 54.5H141.075V72H145.575V67.325H154.825C158.8 67.325 161.525 64.825 161.525 60.925C161.525 57.025 158.8 54.5 154.825 54.5ZM153.575 63.55H145.575V58.275H153.575C154.925 58.275 157.025 58.275 157.025 60.925C157.025 63.55 154.925 63.55 153.575 63.55ZM181.499 72.25C189.174 72.25 192.499 69.025 192.499 63.225C192.499 57.45 189.174 54.25 181.499 54.25C173.799 54.25 170.499 57.425 170.499 63.225C170.499 69.05 173.799 72.25 181.499 72.25ZM181.499 68.475C176.824 68.475 174.999 66.825 174.999 63.225C174.999 59.65 176.799 58.025 181.499 58.025C186.199 58.025 187.999 59.675 187.999 63.225C187.999 66.8 186.174 68.475 181.499 68.475ZM222.338 60.925C222.338 57.025 219.613 54.5 215.638 54.5H201.888V72H206.388V67.325H213.638L216.463 72H221.763L218.538 66.8C220.888 65.875 222.338 63.775 222.338 60.925ZM206.388 58.275H214.388C215.738 58.275 217.838 58.275 217.838 60.925C217.838 63.55 215.738 63.55 214.388 63.55H206.388V58.275ZM252.494 54.5H230.994V58.275H239.494V72H243.994V58.275H252.494V54.5ZM275.497 72H280.472L271.422 54.5H265.347L256.322 72H261.272L263.147 68.275H273.622L275.497 72ZM264.822 64.925L268.397 57.825L271.947 64.925H264.822ZM293.798 68.225V54.5H289.298V72H307.298V68.225H293.798Z" fill="#A3ABC0"/>
<line x1="101" y1="-4.37114e-08" x2="101" y2="98" stroke="#A3ABC0" stroke-width="2"/>
<rect y="34.1393" width="47.7049" height="47.7049" fill="#174A5A"/>
<rect x="12.2951" y="15.9426" width="47.7049" height="47.7049" fill="#229461"/>
<path d="M1.85246 78.7295L0 81.8442L5.54098 81.8442L5.86885 81.3033C6.04918 81.0246 7.29508 78.8606 8.63934 76.5164C12.9344 69.0574 15.4262 64.7459 16.2951 63.3197C16.7705 62.5492 17.2131 61.8115 17.2623 61.6803C17.3279 61.5492 17.5246 61.2049 17.6885 60.9426C17.8525 60.6639 18.8197 59.0082 19.8361 57.2541C20.8524 55.5 21.8197 53.8115 21.9836 53.5164C22.1639 53.2377 22.4426 52.7295 22.6229 52.418C22.8033 52.1065 23.082 51.5984 23.2623 51.3197C23.4262 51.0246 24.0328 49.959 24.6229 48.959L25.6557 47.1393L28.9344 49.0246C30.7377 50.0574 32.4426 51.0246 32.7049 51.1885C32.9836 51.3524 33.9344 51.8934 34.836 52.4016C35.7377 52.9098 36.5901 53.4016 36.7213 53.4836C36.8524 53.582 37.2459 53.7951 37.5738 53.9754C38.2131 54.3197 38.1803 54.3361 38.6885 53.4672C38.8197 53.2213 40.1475 50.9098 41.6393 48.3361C43.1311 45.7623 44.459 43.4508 44.5901 43.2049C44.7213 42.959 45.0983 42.3033 45.4098 41.7623C45.7377 41.2213 46.1147 40.5492 46.2787 40.2869C46.4262 40.0082 47.3115 38.4836 48.2295 36.8934C49.1639 35.2869 50.0492 33.7295 50.2131 33.418L50.5082 32.8443L51.8852 33.6639C52.6393 34.1066 53.3278 34.4672 53.4262 34.4672C53.5574 34.4672 53.6065 32.6803 53.6065 28.7295C53.6065 23.3197 53.5901 22.9918 53.3115 22.9918C53.1475 22.9918 52.9508 23.0574 52.8524 23.1394C52.7049 23.2869 46.8852 26.6803 45.7377 27.2869C45.4262 27.4508 44.8688 27.7787 44.5082 27.9918C44.1475 28.2213 43.7541 28.4508 43.6557 28.5C43.541 28.5656 43.4426 28.6475 43.4426 28.7131C43.4426 28.7623 44.0656 29.1721 44.836 29.6312C45.6065 30.0738 46.2295 30.5 46.2295 30.5656C46.2295 30.6475 45.0328 32.7623 43.6065 35.2049C43.4426 35.4672 42.4918 37.1393 41.4754 38.8934C40.459 40.6475 39.4918 42.3033 39.3279 42.582C39.1639 42.8443 38.9508 43.2213 38.8524 43.4016C38.7541 43.582 38.4918 44.0738 38.2295 44.4836C37.9836 44.8934 37.4918 45.7623 37.1311 46.418C36.7705 47.0574 36.3934 47.582 36.2951 47.582C36.2131 47.582 35.4426 47.1721 34.6065 46.6803C33.7705 46.1885 33.0492 45.7787 33.0164 45.7787C32.9672 45.7787 32.459 45.4836 31.8688 45.1229C31.2787 44.7623 30.7541 44.4672 30.7377 44.4672C30.7049 44.4672 29.8524 43.9918 28.8361 43.4016C27.8361 42.8115 26.9836 42.3361 26.9344 42.3361C26.9016 42.3361 26.4098 42.0574 25.8524 41.7131C25.2951 41.3852 24.6229 40.9754 24.3443 40.8279L23.8688 40.5656L22.5246 42.877C20.082 47.1393 16.8361 52.7459 16.5738 53.1885C16.3279 53.5984 13.2131 59.0082 12.7213 59.877C11.9344 61.2541 3.39344 76.0737 1.85246 78.7295Z" fill="white"/>
</svg>
